<?xml version="1.0" standalone="no"?>
<!DOCTYPE svg PUBLIC "-//W3C//DTD SVG 20010904//EN"
 "http://www.w3.org/TR/2001/REC-SVG-20010904/DTD/svg10.dtd">
<svg version="1.0" xmlns="http://www.w3.org/2000/svg"
 width="700.000000pt" height="700.000000pt" viewBox="0 0 700.000000 700.000000"
 preserveAspectRatio="xMidYMid meet">
<metadata>
Created by potrace 1.14, written by Peter Selinger 2001-2017
</metadata>
<g transform="translate(0.000000,700.000000) scale(0.100000,-0.100000)"
fill="#000000" stroke="none">
<path d="M1888 5633 c39 -43 411 -418 826 -833 l756 -755 833 833 832 832
-315 0 -315 0 -519 -519 -519 -519 -526 519 -525 519 -299 0 -299 0 70 -77z"/>
<path d="M1260 4760 l0 -303 518 -522 517 -523 315 -1 315 -1 -155 156 c-85
85 -460 457 -832 826 l-678 670 0 -302z"/>
<path d="M3430 3761 c-116 -38 -199 -147 -200 -262 0 -161 116 -280 275 -280
291 0 381 390 121 523 -44 23 -153 33 -196 19z"/>
<path d="M4410 3204 c184 -184 559 -556 833 -826 l497 -490 0 302 0 303 -522
524 -522 523 -310 0 -311 0 335 -336z"/>
<path d="M2955 2338 c-336 -337 -707 -711 -825 -830 l-215 -218 304 0 304 0
517 515 c284 283 520 515 525 515 6 0 242 -232 525 -515 l515 -515 318 0 318
0 -832 828 c-457 455 -834 828 -838 830 -3 1 -281 -274 -616 -610z"/>
</g>
</svg>
