<svg width="57" height="57" viewBox="0 0 57 57" fill="none" xmlns="http://www.w3.org/2000/svg">
<path d="M56.556 48.7V41.071L43.485 27.877L35.613 27.877L56.556 48.7Z" fill="white"/>
<path d="M0.314018 8.75494L0.314018 16.3849L13.385 29.5779H21.257L0.314018 8.75494Z" fill="white"/>
<path d="M7.17902 0.606987H14.808L28.002 13.678L41.079 0.606987H49.051L28.002 21.55L7.17902 0.606987Z" fill="white"/>
<path d="M8.46303 56.207H16.092L29.285 43.136L42.36 56.207H50.332L29.285 35.264L8.46303 56.207Z" fill="white"/>
<path d="M28.5 32C30.433 32 32 30.433 32 28.5C32 26.567 30.433 25 28.5 25C26.567 25 25 26.567 25 28.5C25 30.433 26.567 32 28.5 32Z" fill="#E6007A"/>
</svg>
