<svg width="276" height="57" viewBox="0 0 276 57" fill="none" xmlns="http://www.w3.org/2000/svg">
<path className="primary" d="M56.556 48.7V41.071L43.485 27.877L35.613 27.877L56.556 48.7Z" fill="white"/>
<path className="primary" d="M0.314018 8.75494L0.314018 16.3849L13.385 29.5779H21.257L0.314018 8.75494Z" fill="white"/>
<path className="primary" d="M7.17902 0.606987H14.808L28.002 13.678L41.079 0.606987H49.051L28.002 21.55L7.17902 0.606987Z" fill="white"/>
<path className="primary" d="M8.46303 56.207H16.092L29.285 43.136L42.36 56.207H50.332L29.285 35.264L8.46303 56.207Z" fill="white"/>
<path d="M28.5 32C30.433 32 32 30.433 32 28.5C32 26.567 30.433 25 28.5 25C26.567 25 25 26.567 25 28.5C25 30.433 26.567 32 28.5 32Z" fill="#E6007A"/>
<path d="M271.612 34.8859C272.206 34.857 272.798 34.9688 273.34 35.2121C273.882 35.4553 274.359 35.8233 274.732 36.2859C275.104 36.76 275.362 37.313 275.487 37.9024C275.612 38.4917 275.6 39.1019 275.452 39.6859C275.154 41.0379 274.389 42.2417 273.292 43.0859C272.254 43.9367 270.954 44.4029 269.612 44.4059C269.031 44.4396 268.451 44.3379 267.917 44.1088C267.382 43.8797 266.908 43.5295 266.532 43.0859C266.168 42.6081 265.924 42.0502 265.819 41.4587C265.715 40.8673 265.754 40.2594 265.932 39.6859C266.199 38.3512 266.92 37.15 267.972 36.2859C268.972 35.3881 270.268 34.8898 271.612 34.8859Z" fill="#E6007A"/>
<path className="primary" d="M85.85 34.662H83.762C83.4007 34.6958 83.0366 34.6393 82.7025 34.4976C82.3684 34.3558 82.0748 34.1333 81.848 33.85C81.6558 33.5747 81.5297 33.2588 81.4794 32.9269C81.4291 32.5949 81.456 32.2558 81.558 31.936C81.7044 31.2253 82.0817 30.583 82.631 30.109C83.2359 29.546 84.0381 29.2439 84.864 29.268H86.952L89.098 19.408C89.2467 18.5864 89.7139 17.8567 90.398 17.378C91.0146 16.9319 91.754 16.6874 92.515 16.678C93.1453 16.6679 93.7562 16.8957 94.226 17.316C94.4807 17.592 94.6557 17.9321 94.7323 18.2998C94.8089 18.6675 94.7843 19.0491 94.661 19.404L92.515 29.264H94.603C95.5964 29.2753 96.5789 29.057 97.474 28.626C98.3287 28.2113 99.1119 27.6631 99.794 27.002C100.472 26.3428 101.04 25.5791 101.476 24.74C101.911 23.9168 102.233 23.0389 102.433 22.13C102.586 21.308 102.635 20.4701 102.578 19.636C102.531 18.8681 102.324 18.1185 101.969 17.436C101.62 16.7776 101.099 16.2263 100.461 15.841C99.7028 15.4092 98.8389 15.1982 97.967 15.232H86.894C86.1247 15.2354 85.3574 15.3131 84.603 15.464C83.8121 15.618 83.0493 15.8918 82.341 16.276C81.6381 16.6528 81.0092 17.1539 80.485 17.755C79.9428 18.3957 79.5735 19.1643 79.412 19.988C79.2102 20.8083 79.3133 21.674 79.702 22.424C80.0587 23.1118 80.4658 23.7723 80.92 24.4C81.1931 24.6776 81.3899 25.021 81.4915 25.3969C81.5931 25.7728 81.5961 26.1686 81.5 26.546C81.3291 27.2683 80.9331 27.9175 80.369 28.4C79.8122 28.9246 79.0751 29.2153 78.31 29.212C77.6544 29.2133 77.0185 28.9879 76.51 28.574C75.4193 27.5546 74.6023 26.2775 74.134 24.86C73.6249 23.2855 73.5442 21.604 73.9 19.988C74.2201 18.4268 74.8729 16.953 75.814 15.667C76.733 14.4189 77.8614 13.3396 79.149 12.477C80.4581 11.6006 81.8966 10.9352 83.412 10.505C84.9197 10.0659 86.4817 9.84135 88.052 9.83797H98.782C100.52 9.7751 102.246 10.1535 103.799 10.938C105.061 11.6047 106.122 12.5957 106.873 13.809C107.598 15.0177 108.035 16.3772 108.149 17.782C108.283 19.2754 108.195 20.7803 107.888 22.248C107.524 23.8389 106.939 25.371 106.15 26.8C105.347 28.2764 104.318 29.618 103.1 30.776C101.854 31.9547 100.411 32.9067 98.837 33.589C97.1532 34.3165 95.3352 34.6821 93.501 34.662H91.418L90.838 37.388C90.6155 38.3277 90.2947 39.2414 89.881 40.114C89.4907 40.9425 88.961 41.6978 88.315 42.347C87.6517 43.0015 86.8625 43.5145 85.995 43.855C84.9673 44.2434 83.8744 44.4305 82.776 44.406C81.8823 44.388 80.9948 44.2515 80.137 44C79.636 43.8549 79.1721 43.6037 78.7768 43.2634C78.3815 42.9231 78.064 42.5018 77.846 42.028C77.5109 41.5142 77.3863 40.8911 77.498 40.288C77.6873 39.5207 78.1386 38.8437 78.774 38.374C79.3839 37.8879 80.1401 37.6222 80.92 37.62C81.2696 37.614 81.6163 37.6835 81.9365 37.8236C82.2568 37.9637 82.5431 38.1712 82.776 38.432C82.8947 38.6144 83.0581 38.7634 83.2506 38.8649C83.4432 38.9664 83.6584 39.017 83.876 39.012C84.0788 39.0032 84.2747 38.9354 84.4395 38.8169C84.6043 38.6984 84.731 38.5344 84.804 38.345C85.1726 37.4584 85.4448 36.5347 85.616 35.59L85.85 34.662ZM106.73 32.98C107.079 31.3929 107.707 29.8807 108.586 28.514C109.463 27.1362 110.549 25.9035 111.805 24.86C113.059 23.8173 114.468 22.9759 115.981 22.366C117.462 21.7564 119.048 21.4412 120.65 21.438C122.152 21.4114 123.64 21.7289 125 22.366C126.224 22.9427 127.296 23.7966 128.132 24.86C128.959 25.9367 129.534 27.1854 129.814 28.514C130.123 29.9889 130.103 31.5136 129.756 32.98C129.411 34.559 128.782 36.0623 127.9 37.417C127.018 38.7819 125.932 40.0043 124.681 41.042C123.429 42.0829 122.017 42.9152 120.5 43.507C118.995 44.1024 117.391 44.4077 115.773 44.407C114.293 44.4291 112.827 44.1217 111.481 43.507C110.255 42.9472 109.181 42.102 108.349 41.042C107.526 39.9738 106.951 38.7354 106.667 37.417C106.36 35.9515 106.382 34.4362 106.73 32.98ZM124.362 32.98C124.554 32.1813 124.574 31.3509 124.42 30.544C124.281 29.8068 123.973 29.1119 123.52 28.514C123.075 27.9334 122.498 27.4663 121.838 27.151C121.122 26.8136 120.338 26.645 119.547 26.658C118.692 26.6589 117.844 26.8263 117.053 27.151C116.239 27.4806 115.485 27.941 114.82 28.514C114.14 29.098 113.553 29.7826 113.08 30.544C112.607 31.293 112.264 32.1166 112.065 32.98C111.853 33.7278 111.816 34.5143 111.957 35.2787C112.098 36.0431 112.413 36.7648 112.877 37.388C113.35 37.9868 113.961 38.463 114.657 38.7763C115.353 39.0896 116.115 39.2308 116.877 39.188C117.732 39.187 118.58 39.0196 119.371 38.695C120.18 38.3682 120.933 37.9182 121.604 37.361C122.283 36.7979 122.87 36.1326 123.344 35.389C123.821 34.6516 124.166 33.8363 124.362 32.98ZM144.488 11C144.372 11 144.285 11.116 144.227 11.348L144.027 12.16L138.688 37.33C138.611 37.6393 138.533 37.9583 138.456 38.287C138.397 38.5532 138.32 38.8148 138.224 39.07C138.541 38.731 138.926 38.4639 139.355 38.287C139.698 38.1572 140.061 38.0895 140.428 38.087C140.73 38.0776 141.031 38.1322 141.311 38.2472C141.591 38.3621 141.843 38.5348 142.052 38.754C142.264 38.9893 142.409 39.2779 142.47 39.5889C142.531 39.8999 142.507 40.2217 142.4 40.52C142.277 41.1516 141.975 41.7347 141.53 42.2C140.896 42.9899 140.066 43.6004 139.123 43.971C138.351 44.2504 137.537 44.3975 136.716 44.406C136.081 44.4707 135.44 44.3744 134.852 44.1261C134.264 43.8777 133.748 43.4853 133.352 42.985C132.695 42.0376 132.577 40.4813 133 38.316L138.568 12.332C138.766 11.1694 139.117 10.0382 139.612 8.96797C139.968 8.21022 140.471 7.53048 141.091 6.96797C141.657 6.48188 142.335 6.14317 143.063 5.98197C143.911 5.79818 144.777 5.71062 145.644 5.72097H146.108C146.422 5.70547 146.735 5.77222 147.016 5.91462C147.296 6.05702 147.535 6.27016 147.708 6.53297C147.888 6.79205 148.01 7.08716 148.065 7.39793C148.12 7.7087 148.107 8.02772 148.027 8.33297C147.863 9.03533 147.477 9.66633 146.927 10.133C146.409 10.6697 145.701 10.982 144.955 11.003L144.488 11ZM155.276 39.418C154.89 38.6712 154.56 37.8963 154.29 37.1C153.982 36.2248 153.921 35.2813 154.116 34.374C154.313 33.5948 154.774 32.9081 155.421 32.431C156.203 31.8387 157.027 31.304 157.886 30.831C158.643 30.4115 159.32 29.8617 159.886 29.207C160.331 28.7279 160.658 28.1521 160.843 27.525C160.959 26.945 160.514 26.655 159.509 26.655C158.713 26.6594 157.925 26.817 157.189 27.119C156.376 27.4548 155.637 27.9475 155.014 28.569C154.282 29.299 153.657 30.1289 153.158 31.034C152.558 32.1296 152.137 33.3143 151.911 34.543L150.4 41.8C150.33 42.1998 150.179 42.581 149.955 42.9196C149.732 43.2583 149.44 43.5471 149.1 43.768C148.489 44.1735 147.774 44.3949 147.04 44.406C146.736 44.4142 146.433 44.362 146.15 44.2525C145.866 44.143 145.607 43.9783 145.387 43.768C145.156 43.5025 144.999 43.1806 144.933 42.8349C144.867 42.4891 144.893 42.132 145.01 41.8L151.216 12.568C151.417 11.3969 151.768 10.2566 152.26 9.17497C152.611 8.4055 153.114 7.71499 153.739 7.14497C154.297 6.66308 154.964 6.32462 155.682 6.15897C156.52 5.97404 157.376 5.88646 158.234 5.89797H158.756C159.071 5.87436 159.386 5.93759 159.667 6.08077C159.948 6.22395 160.185 6.44159 160.351 6.70997C160.68 7.24861 160.794 7.8912 160.67 8.50997C160.481 9.18419 160.111 9.79383 159.6 10.273C159.351 10.5383 159.05 10.7498 158.716 10.8944C158.381 11.0391 158.021 11.1138 157.657 11.114H157.135C157.019 11.114 156.932 11.23 156.874 11.462C156.816 11.694 156.749 11.984 156.674 12.332L154 24.686C155.097 23.7214 156.328 22.9205 157.654 22.308C158.758 21.7691 159.964 21.4725 161.192 21.438C161.958 21.4011 162.723 21.5206 163.441 21.7891C164.159 22.0577 164.814 22.4697 165.368 23C165.887 23.5347 166.252 24.1992 166.426 24.9238C166.599 25.6483 166.574 26.4063 166.354 27.118C165.962 28.8233 165.11 30.3883 163.889 31.642C162.661 32.9893 161.144 34.0415 159.452 34.72C159.568 34.9133 159.742 35.2516 159.974 35.735C160.206 36.2183 160.448 36.7113 160.7 37.214C160.924 37.6687 161.186 38.1036 161.483 38.514C161.754 38.8813 162.005 39.065 162.237 39.065C162.569 38.8192 162.917 38.597 163.28 38.4C163.653 38.1918 164.073 38.083 164.5 38.084C164.799 38.0721 165.097 38.1256 165.374 38.2408C165.65 38.356 165.898 38.5301 166.1 38.751C166.304 38.9916 166.441 39.2819 166.497 39.5926C166.553 39.9032 166.526 40.2231 166.419 40.52C166.3 41.1452 165.997 41.7208 165.549 42.173C165.099 42.6434 164.59 43.0529 164.034 43.391C163.524 43.7051 162.979 43.9582 162.41 44.145C161.981 44.2981 161.531 44.386 161.076 44.406C160.356 44.4257 159.641 44.2767 158.988 43.971C158.414 43.6855 157.894 43.3029 157.451 42.84C156.993 42.3575 156.593 41.8221 156.262 41.245C155.914 40.6456 155.585 40.0366 155.276 39.418ZM188.336 37.272C188.259 37.62 188.172 37.9776 188.075 38.345C188.012 38.6134 187.925 38.8755 187.814 39.128L188.104 38.896C188.677 38.4241 189.392 38.1585 190.134 38.142C190.428 38.1289 190.722 38.1821 190.993 38.2975C191.264 38.4129 191.506 38.5877 191.7 38.809C191.894 39.0436 192.027 39.3225 192.088 39.6209C192.149 39.9194 192.135 40.2281 192.048 40.52C191.867 41.1896 191.529 41.8065 191.062 42.32C190.383 42.991 189.587 43.5317 188.713 43.915C187.989 44.229 187.211 44.3966 186.422 44.408C184.218 44.408 182.942 43.422 182.594 41.45C181.606 42.3278 180.492 43.0513 179.288 43.596C178.085 44.1382 176.78 44.4152 175.46 44.408C174.205 44.4563 172.958 44.187 171.835 43.625C170.925 43.139 170.17 42.4049 169.66 41.508C169.141 40.5623 168.844 39.5113 168.79 38.434C168.721 37.1862 168.838 35.9351 169.138 34.722C169.479 33.0851 170.045 31.5034 170.82 30.022C171.618 28.4564 172.634 27.0114 173.836 25.73C175.013 24.4717 176.396 23.4234 177.925 22.63C179.437 21.841 181.119 21.4329 182.825 21.441C184.16 21.3933 185.464 21.8487 186.479 22.717C186.806 22.3083 187.223 21.9808 187.697 21.76C188.132 21.5538 188.607 21.4449 189.089 21.441C189.395 21.4334 189.7 21.4887 189.985 21.6034C190.269 21.7181 190.527 21.8898 190.742 22.108C190.973 22.3801 191.129 22.7075 191.195 23.0581C191.261 23.4087 191.235 23.7705 191.119 24.108L188.336 37.272ZM181.724 26.658C180.805 26.6552 179.906 26.9279 179.143 27.441C178.33 27.9826 177.607 28.648 177 29.413C176.361 30.2034 175.824 31.0705 175.4 31.994C175 32.8436 174.708 33.7399 174.53 34.662C174.417 35.2155 174.358 35.7789 174.356 36.344C174.347 36.8425 174.446 37.3371 174.646 37.794C174.831 38.2097 175.133 38.5624 175.516 38.809C175.971 39.0784 176.495 39.2094 177.024 39.186C177.886 39.1831 178.734 38.9637 179.489 38.548C180.289 38.1171 181.006 37.5476 181.606 36.866C182.242 36.1473 182.78 35.3477 183.206 34.488C183.642 33.6245 183.963 32.7082 184.163 31.762C184.478 30.5894 184.448 29.3507 184.076 28.195C183.917 27.7094 183.598 27.2925 183.17 27.013C182.743 26.7336 182.232 26.6084 181.724 26.658ZM214.61 37.33C214.533 37.6393 214.455 37.9583 214.378 38.287C214.319 38.5532 214.242 38.8148 214.146 39.07C214.5 38.7648 214.902 38.5199 215.335 38.345C215.678 38.2152 216.041 38.1475 216.408 38.145C216.702 38.1319 216.996 38.1851 217.267 38.3005C217.538 38.4159 217.78 38.5907 217.974 38.812C218.168 39.0466 218.301 39.3255 218.362 39.6239C218.423 39.9224 218.409 40.2311 218.322 40.523C218.131 41.1769 217.816 41.788 217.394 42.323C216.735 43.0577 215.91 43.6245 214.987 43.976C214.254 44.2459 213.481 44.3912 212.7 44.406C211.669 44.4717 210.65 44.1628 209.829 43.536C209.472 43.2012 209.188 42.7969 208.993 42.348C208.799 41.8991 208.698 41.4152 208.698 40.926C207.682 41.9496 206.507 42.8017 205.218 43.449C203.94 44.0875 202.529 44.4154 201.1 44.406C199.836 44.4518 198.58 44.1827 197.446 43.623C196.528 43.1481 195.771 42.4113 195.271 41.506C194.77 40.5547 194.483 39.5056 194.43 38.432C194.361 37.1842 194.478 35.9331 194.778 34.72C195.121 33.0796 195.697 31.4968 196.489 30.02C197.299 28.4636 198.312 27.0211 199.5 25.73C200.663 24.4681 202.036 23.419 203.56 22.63C205.054 21.8456 206.716 21.4375 208.403 21.441C209.151 21.3953 209.898 21.5549 210.562 21.9024C211.227 22.2499 211.784 22.7722 212.173 23.413L215.537 7.63697C215.687 6.8529 216.134 6.15692 216.784 5.69397C217.365 5.26827 218.064 5.03503 218.784 5.02697C219.104 5.01736 219.422 5.07138 219.721 5.18588C220.02 5.30038 220.293 5.47309 220.524 5.69397C220.761 5.95064 220.925 6.267 220.996 6.60924C221.068 6.95148 221.045 7.30671 220.93 7.63697L214.61 37.33ZM207.3 26.658C206.381 26.6552 205.482 26.9279 204.719 27.441C203.905 27.9823 203.181 28.6477 202.573 29.413C201.934 30.2034 201.397 31.0705 200.973 31.994C200.573 32.8436 200.281 33.7399 200.103 34.662C199.99 35.2155 199.931 35.7789 199.929 36.344C199.92 36.8425 200.019 37.3371 200.219 37.794C200.404 38.2097 200.706 38.5624 201.089 38.809C201.564 39.0829 202.108 39.2138 202.655 39.186C203.531 39.1895 204.392 38.9593 205.149 38.519C205.938 38.0611 206.644 37.4727 207.237 36.779C207.862 36.0575 208.391 35.2578 208.81 34.4C209.225 33.5609 209.536 32.6748 209.738 31.761C210.053 30.5884 210.023 29.3497 209.651 28.194C209.492 27.7088 209.173 27.2922 208.745 27.013C208.318 26.7337 207.808 26.6085 207.3 26.658ZM229.342 44.406C227.88 44.4409 226.43 44.1326 225.108 43.506C223.95 42.9409 222.952 42.0932 222.208 41.041C221.454 39.9486 220.958 38.6991 220.758 37.387C220.529 35.9203 220.588 34.423 220.932 32.979C221.271 31.3797 221.858 29.8434 222.672 28.426C223.452 27.0545 224.451 25.8201 225.63 24.772C226.805 23.7382 228.149 22.9141 229.603 22.336C231.125 21.73 232.75 21.4243 234.388 21.436C235.772 21.3946 237.15 21.6211 238.448 22.103C239.43 22.4788 240.312 23.0739 241.029 23.843C241.652 24.5273 242.073 25.3703 242.247 26.279C242.421 27.1901 242.411 28.1267 242.218 29.034C242.006 29.9703 241.634 30.8631 241.118 31.673C240.57 32.5503 239.885 33.3336 239.088 33.993C238.231 34.6951 237.26 35.2444 236.217 35.617C235.074 36.0301 233.866 36.2363 232.65 36.226C232.156 36.2242 231.662 36.1952 231.171 36.139C230.684 36.0895 230.205 35.9724 229.75 35.791C229.343 35.6323 228.998 35.3478 228.764 34.979C228.517 34.506 228.455 33.9581 228.59 33.442C228.771 32.739 229.154 32.1041 229.69 31.615C229.955 31.3465 230.271 31.1338 230.62 30.9893C230.969 30.8449 231.343 30.7717 231.72 30.774C232.1 30.7646 232.476 30.844 232.82 31.006C233.225 31.1714 233.659 31.2504 234.096 31.238C234.447 31.2501 234.797 31.1923 235.126 31.0678C235.454 30.9433 235.755 30.7547 236.01 30.513C236.433 30.159 236.737 29.683 236.88 29.15C236.935 28.839 236.911 28.5191 236.81 28.2201C236.708 27.921 236.533 27.6523 236.3 27.439C235.45 26.81 234.392 26.5299 233.342 26.656C232.493 26.6433 231.65 26.801 230.863 27.1198C230.076 27.4386 229.361 27.912 228.76 28.512C227.501 29.7182 226.633 31.2737 226.266 32.978C225.847 34.4552 226.024 36.0378 226.759 37.386C227.13 37.9857 227.659 38.4712 228.289 38.7889C228.918 39.1065 229.623 39.244 230.326 39.186C231.222 39.2033 232.115 39.066 232.965 38.78C233.858 38.429 234.69 37.9397 235.43 37.33C235.989 36.8271 236.708 36.5393 237.46 36.518C237.768 36.5104 238.073 36.5715 238.354 36.697C238.635 36.8224 238.884 37.0089 239.084 37.243C239.296 37.491 239.444 37.7873 239.515 38.1059C239.585 38.4244 239.577 38.7555 239.49 39.07C239.401 39.4067 239.264 39.729 239.084 40.027C238.874 40.3766 238.621 40.6982 238.33 40.984C237.121 42.1804 235.653 43.0833 234.04 43.623C232.526 44.1332 230.94 44.3975 229.342 44.406ZM256.892 32.574L261.184 40.174C261.36 40.4009 261.47 40.6717 261.503 40.957C261.521 41.2211 261.492 41.4863 261.416 41.74C261.234 42.4784 260.805 43.1325 260.2 43.594C259.641 44.0968 258.922 44.3846 258.17 44.406C257.824 44.4066 257.484 44.3166 257.184 44.145C256.875 43.9714 256.616 43.7218 256.43 43.42L252.66 36.92L246.28 43.42C245.977 43.7745 245.586 44.0434 245.147 44.2C244.802 44.3231 244.44 44.3906 244.074 44.4C243.758 44.404 243.446 44.3325 243.163 44.1912C242.881 44.0499 242.636 43.8431 242.45 43.588C242.243 43.3315 242.098 43.0302 242.027 42.708C241.957 42.3858 241.963 42.0516 242.044 41.732C242.116 41.4758 242.203 41.224 242.305 40.978C242.456 40.6718 242.662 40.3964 242.914 40.166L250.338 32.626L246.452 25.782C246.259 25.283 246.219 24.7379 246.336 24.216C246.503 23.4619 246.935 22.793 247.554 22.331C248.12 21.8435 248.837 21.5668 249.584 21.548C249.92 21.5549 250.248 21.6446 250.541 21.809C250.862 21.9761 251.133 22.2265 251.324 22.534L254.572 28.276L260.256 22.534C260.564 22.2257 260.928 21.9795 261.329 21.809C261.666 21.6512 262.031 21.5624 262.402 21.548C262.733 21.5422 263.062 21.6155 263.359 21.7618C263.657 21.908 263.915 22.123 264.113 22.389C264.328 22.6472 264.479 22.9523 264.555 23.2797C264.631 23.6071 264.628 23.9477 264.548 24.274C264.386 24.8536 264.064 25.3761 263.62 25.782L256.892 32.574Z" fill="white"/>
</svg>
